<svg style="display:none" xmlns="http://www.w3.org/2000/svg">
    <symbol id="hlegal_logo" viewBox="0 0 130 60">
        <g clip-path="url(#clip0_172826_1879)">
            <path d="M4.95672 0H0V35.7986H4.95672V22.5177C4.95672 20.2709 5.51557 18.4984 6.63326 17.2502C7.75095 16.002 9.2817 15.353 11.1769 15.353C12.8049 15.353 14.1655 15.9521 15.2589 17.1004C16.3523 18.2738 16.9112 19.7466 16.9112 21.5191V35.8236H21.8922V21.5191C21.8922 18.2238 20.9932 15.6276 19.1951 13.6804C17.3971 11.7332 15.0402 10.7596 12.1731 10.7596C11.347 10.7596 10.5209 10.8594 9.71906 11.0841C8.89294 11.3088 8.2369 11.5584 7.70235 11.833C7.16781 12.1076 6.65756 12.4072 6.1959 12.7567C5.73424 13.1062 5.41838 13.3558 5.27259 13.5056C5.1268 13.6554 5.00532 13.7552 4.95672 13.8301V0Z"
                  fill="#F0145A"/>
            <path d="M32.9726 0H27.8628V35.7689H32.9726V0Z" fill="white"/>
            <path d="M63.1114 25.2935L63.3669 22.7386C63.3669 19.315 62.2428 16.4535 59.9433 14.1541C57.6439 11.8546 54.7824 10.7305 51.3588 10.7305C47.9352 10.7305 44.9715 11.9568 42.5188 14.4096C40.0661 16.8623 38.8397 19.7749 38.8397 23.2496C38.8397 26.8265 40.1172 29.8924 42.621 32.4473C45.1248 35.0022 48.1396 36.2797 51.6143 36.2797C52.9429 36.2797 54.1692 36.0753 55.3956 35.7176C56.6219 35.3088 57.6439 34.9 58.3593 34.4912C59.1258 34.0313 59.8922 33.5204 60.5565 32.9583C61.2208 32.3962 61.6807 31.9874 61.8851 31.7319C62.0895 31.4764 62.2428 31.3231 62.345 31.1698L59.0236 27.8484L58.2571 28.8193C57.7461 29.4325 56.8774 30.0457 55.6511 30.7099C54.3736 31.3742 53.0451 31.6808 51.6143 31.6808C49.6215 31.6808 47.9352 31.0676 46.5045 29.7902C45.0737 28.5127 44.205 27.0309 43.9495 25.2935H63.1114ZM51.3588 15.0738C53.2494 15.0738 54.7824 15.6359 56.0599 16.709C57.2862 17.8331 58.0527 19.2128 58.3593 20.9501H44.1539C44.6138 19.2128 45.4314 17.8331 46.7089 16.709C47.9352 15.6359 49.5193 15.0738 51.3588 15.0738Z"
                  fill="white"/>
            <path d="M86.9429 34.2868C86.9429 36.5351 86.2786 38.3747 84.8989 39.8054C83.5704 41.1851 81.8841 41.9005 79.7891 41.9005C78.8693 41.9005 77.9496 41.7472 77.0809 41.4917C76.2122 41.2362 75.5479 40.9296 74.9859 40.5719C74.4238 40.2142 73.9128 39.8565 73.4018 39.3967C72.9419 38.9368 72.6353 38.6302 72.482 38.4769C72.3287 38.3236 72.2265 38.1703 72.1244 38.0681L68.803 41.3895L69.2117 41.9005C69.4672 42.2582 69.9271 42.718 70.5403 43.229C71.1535 43.6889 71.8689 44.1999 72.6864 44.7109C73.504 45.1708 74.526 45.5796 75.8034 45.9372C77.0809 46.2949 78.4094 46.4993 79.7891 46.4993C83.2638 46.4993 86.1253 45.3241 88.5269 42.9735C90.8774 40.5719 92.0527 37.7104 92.0527 34.2357V11.2415H86.9429V13.7964L86.0742 13.0299C85.5121 12.5189 84.6434 12.0079 83.4171 11.4969C82.1907 10.986 80.8622 10.7305 79.5336 10.7305C76.4166 10.7305 73.7595 11.9057 71.4601 14.3074C69.1606 16.709 68.0365 19.5705 68.0365 22.9941C68.0365 26.4177 69.1606 29.2792 71.4601 31.6808C73.7595 34.0824 76.4166 35.2577 79.5336 35.2577C80.4023 35.2577 81.2199 35.1555 82.0885 34.9511C82.9061 34.6956 83.5704 34.4401 84.1325 34.1846C84.6945 33.9291 85.2055 33.6225 85.6654 33.2648C86.1253 32.9072 86.483 32.6517 86.5852 32.5495L86.9429 32.1918V34.2868ZM73.1463 22.9941C73.1463 20.8479 73.8106 19.0595 75.1903 17.5777C76.5699 16.0958 78.2051 15.3293 80.0446 15.3293C81.8841 15.3293 83.5193 16.0958 84.8989 17.5777C86.2275 19.0595 86.9429 20.8479 86.9429 22.9941C86.9429 25.1402 86.2275 26.9287 84.8989 28.4105C83.5193 29.8924 81.8841 30.6588 80.0446 30.6588C78.2051 30.6588 76.5699 29.8924 75.1903 28.4105C73.8106 26.9287 73.1463 25.1402 73.1463 22.9941Z"
                  fill="white"/>
            <path d="M118.724 35.7687V19.9282C118.724 17.3222 117.753 15.1249 115.863 13.3876C113.972 11.5991 111.519 10.7305 108.504 10.7305C107.329 10.7305 106.154 10.8838 105.03 11.1904C103.906 11.548 102.986 11.9057 102.321 12.3145C101.657 12.7233 100.993 13.1832 100.38 13.7453C99.7666 14.2563 99.4089 14.6139 99.2045 14.8183C99.0512 15.0227 98.8979 15.176 98.7957 15.3293L102.117 18.6507L102.781 17.782C103.19 17.22 103.906 16.709 104.979 16.1469C106.052 15.5848 107.227 15.3293 108.504 15.3293C109.986 15.3293 111.213 15.7892 112.183 16.6579C113.154 17.5266 113.614 18.6507 113.614 19.9282L104.672 21.4611C102.475 21.8188 100.686 22.6875 99.46 24.0672C98.1825 25.4468 97.5182 27.1331 97.5182 29.1259C97.5182 31.0165 98.3358 32.6517 99.971 34.0824C101.657 35.5643 103.701 36.2797 106.205 36.2797C107.074 36.2797 107.891 36.1775 108.709 35.922C109.577 35.7176 110.242 35.4621 110.804 35.2066C111.366 34.9511 111.877 34.6445 112.337 34.2868C112.797 33.9291 113.103 33.6736 113.308 33.5715C113.461 33.4182 113.563 33.2649 113.614 33.2138V35.7687H118.724ZM106.971 31.6808C105.643 31.6808 104.57 31.3742 103.803 30.761C102.986 30.1479 102.628 29.4325 102.628 28.6149C102.628 27.7462 102.884 26.9798 103.446 26.4177C104.008 25.8556 104.774 25.4468 105.694 25.2935L113.614 24.0161V24.527C113.614 26.8265 113.052 28.5638 111.877 29.8413C110.702 31.0676 109.066 31.6808 106.971 31.6808Z"
                  fill="white"/>
            <path d="M130 0H124.89V35.7689H130V0Z" fill="white"/>
            <path d="M0 53.1185H1.59915V58.7253H5.06396V60.0283H0V53.1185Z" fill="white"/>
            <path d="M15.5016 58.5477H12.2934L11.6814 60.0283H10.0428L13.1226 53.1185H14.702L17.7917 60.0283H16.1136L15.5016 58.5477ZM14.9982 57.3335L13.9025 54.688L12.8067 57.3335H14.9982Z"
                  fill="white"/>
            <path d="M33.5121 53.1185L31.2516 60.0283H29.534L28.0138 55.3494L26.4443 60.0283H24.7366L22.4662 53.1185H24.1245L25.6842 57.9751L27.313 53.1185H28.7937L30.3731 58.0146L31.9821 53.1185H33.5121Z"
                  fill="white"/>
            <path d="M50.5232 60.1468C49.819 60.1468 49.1807 59.9954 48.6082 59.6927C48.0422 59.3834 47.5947 58.959 47.2657 58.4193C46.9432 57.8731 46.782 57.2578 46.782 56.5734C46.782 55.889 46.9432 55.277 47.2657 54.7373C47.5947 54.1911 48.0422 53.7667 48.6082 53.464C49.1807 53.1547 49.8223 53 50.5331 53C51.1319 53 51.6716 53.1053 52.152 53.3159C52.6389 53.5265 53.047 53.8292 53.376 54.224L52.3494 55.1717C51.8821 54.6321 51.303 54.3622 50.612 54.3622C50.1843 54.3622 49.8026 54.4577 49.467 54.6485C49.1313 54.8328 48.8681 55.0927 48.6773 55.4283C48.493 55.764 48.4009 56.1456 48.4009 56.5734C48.4009 57.0012 48.493 57.3828 48.6773 57.7185C48.8681 58.0541 49.1313 58.3173 49.467 58.5082C49.8026 58.6924 50.1843 58.7846 50.612 58.7846C51.303 58.7846 51.8821 58.5115 52.3494 57.9653L53.376 58.9129C53.047 59.3143 52.6389 59.6203 52.152 59.8309C51.665 60.0415 51.1221 60.1468 50.5232 60.1468Z"
                  fill="white"/>
            <path d="M62.5933 60.1468C61.876 60.1468 61.2278 59.9922 60.6487 59.6829C60.0761 59.3736 59.6253 58.9491 59.2963 58.4095C58.9738 57.8632 58.8126 57.2512 58.8126 56.5734C58.8126 55.8956 58.9738 55.2868 59.2963 54.7472C59.6253 54.201 60.0761 53.7733 60.6487 53.464C61.2278 53.1547 61.876 53 62.5933 53C63.3106 53 63.9555 53.1547 64.5281 53.464C65.1006 53.7733 65.5514 54.201 65.8804 54.7472C66.2095 55.2868 66.374 55.8956 66.374 56.5734C66.374 57.2512 66.2095 57.8632 65.8804 58.4095C65.5514 58.9491 65.1006 59.3736 64.5281 59.6829C63.9555 59.9922 63.3106 60.1468 62.5933 60.1468ZM62.5933 58.7846C63.0013 58.7846 63.3698 58.6924 63.6989 58.5082C64.0279 58.3173 64.2846 58.0541 64.4688 57.7185C64.6597 57.3828 64.7551 57.0012 64.7551 56.5734C64.7551 56.1456 64.6597 55.764 64.4688 55.4283C64.2846 55.0927 64.0279 54.8328 63.6989 54.6485C63.3698 54.4577 63.0013 54.3622 62.5933 54.3622C62.1853 54.3622 61.8168 54.4577 61.4877 54.6485C61.1587 54.8328 60.8987 55.0927 60.7079 55.4283C60.5236 55.764 60.4315 56.1456 60.4315 56.5734C60.4315 57.0012 60.5236 57.3828 60.7079 57.7185C60.8987 58.0541 61.1587 58.3173 61.4877 58.5082C61.8168 58.6924 62.1853 58.7846 62.5933 58.7846Z"
                  fill="white"/>
            <path d="M78.7995 60.0283L78.7896 55.8824L76.7561 59.2979H76.0355L74.0119 55.9713V60.0283H72.5115V53.1185H73.8342L76.4205 57.4125L78.9673 53.1185H80.2802L80.2999 60.0283H78.7995Z"
                  fill="white"/>
            <path d="M89.8659 53.1185C90.478 53.1185 91.0077 53.2205 91.4552 53.4245C91.9093 53.6285 92.2581 53.918 92.5016 54.2931C92.7451 54.6682 92.8668 55.1125 92.8668 55.6258C92.8668 56.1325 92.7451 56.5767 92.5016 56.9584C92.2581 57.3335 91.9093 57.623 91.4552 57.8271C91.0077 58.0245 90.478 58.1232 89.8659 58.1232H88.4741V60.0283H86.8749V53.1185H89.8659ZM89.7771 56.8202C90.2575 56.8202 90.6227 56.7182 90.8728 56.5142C91.1229 56.3036 91.2479 56.0074 91.2479 55.6258C91.2479 55.2375 91.1229 54.9414 90.8728 54.7373C90.6227 54.5268 90.2575 54.4215 89.7771 54.4215H88.4741V56.8202H89.7771Z"
                  fill="white"/>
            <path d="M103.148 58.5477H99.9396L99.3276 60.0283H97.6889L100.769 53.1185H102.348L105.438 60.0283H103.76L103.148 58.5477ZM102.644 57.3335L101.549 54.688L100.453 57.3335H102.644Z"
                  fill="white"/>
            <path d="M117.428 53.1185V60.0283H116.115L112.67 55.8331V60.0283H111.09V53.1185H112.413L115.848 57.3137V53.1185H117.428Z"
                  fill="white"/>
            <path d="M127.315 57.5803V60.0283H125.716V57.5605L123.041 53.1185H124.739L126.585 56.1884L128.43 53.1185H130L127.315 57.5803Z"
                  fill="white"/>
        </g>
        <defs>
            <clipPath id="clip0_172826_1879">
                <rect width="130" height="60" fill="white"/>
            </clipPath>
        </defs>
    </symbol>

    <symbol id="hlegal_logo_services" viewBox="0 0 302 60">
        <g clip-path="url(#clip0_174026_2041)">
            <path d="M4.95672 0H0V35.7986H4.95672V22.5177C4.95672 20.2709 5.51557 18.4984 6.63326 17.2502C7.75095 16.002 9.2817 15.353 11.1769 15.353C12.8049 15.353 14.1655 15.9521 15.2589 17.1004C16.3523 18.2738 16.9112 19.7466 16.9112 21.5191V35.8236H21.8922V21.5191C21.8922 18.2238 20.9932 15.6276 19.1951 13.6804C17.3971 11.7332 15.0402 10.7596 12.1731 10.7596C11.347 10.7596 10.5209 10.8594 9.71906 11.0841C8.89294 11.3088 8.2369 11.5584 7.70235 11.833C7.16781 12.1076 6.65756 12.4072 6.1959 12.7567C5.73424 13.1062 5.41838 13.3558 5.27259 13.5056C5.1268 13.6554 5.00532 13.7552 4.95672 13.8301V0Z"
                  fill="#F0145A"/>
            <path d="M32.9726 0H27.8628V35.7689H32.9726V0Z" fill="white"/>
            <path d="M63.1114 25.2935L63.3669 22.7386C63.3669 19.315 62.2428 16.4535 59.9433 14.1541C57.6439 11.8546 54.7824 10.7305 51.3588 10.7305C47.9352 10.7305 44.9715 11.9568 42.5188 14.4096C40.0661 16.8623 38.8397 19.7749 38.8397 23.2496C38.8397 26.8265 40.1172 29.8924 42.621 32.4473C45.1248 35.0022 48.1396 36.2797 51.6143 36.2797C52.9429 36.2797 54.1692 36.0753 55.3956 35.7176C56.6219 35.3088 57.6439 34.9 58.3593 34.4912C59.1258 34.0313 59.8922 33.5204 60.5565 32.9583C61.2208 32.3962 61.6807 31.9874 61.8851 31.7319C62.0895 31.4764 62.2428 31.3231 62.345 31.1698L59.0236 27.8484L58.2571 28.8193C57.7461 29.4325 56.8774 30.0457 55.6511 30.7099C54.3736 31.3742 53.0451 31.6808 51.6143 31.6808C49.6215 31.6808 47.9352 31.0676 46.5045 29.7902C45.0737 28.5127 44.205 27.0309 43.9495 25.2935H63.1114ZM51.3588 15.0738C53.2494 15.0738 54.7824 15.6359 56.0599 16.709C57.2862 17.8331 58.0527 19.2128 58.3593 20.9501H44.1539C44.6138 19.2128 45.4314 17.8331 46.7089 16.709C47.9352 15.6359 49.5193 15.0738 51.3588 15.0738Z"
                  fill="white"/>
            <path d="M86.9429 34.2868C86.9429 36.5351 86.2786 38.3747 84.8989 39.8054C83.5704 41.1851 81.8841 41.9005 79.7891 41.9005C78.8693 41.9005 77.9496 41.7472 77.0809 41.4917C76.2122 41.2362 75.5479 40.9296 74.9859 40.5719C74.4238 40.2142 73.9128 39.8565 73.4018 39.3967C72.9419 38.9368 72.6353 38.6302 72.482 38.4769C72.3287 38.3236 72.2265 38.1703 72.1244 38.0681L68.803 41.3895L69.2117 41.9005C69.4672 42.2582 69.9271 42.718 70.5403 43.229C71.1535 43.6889 71.8689 44.1999 72.6864 44.7109C73.504 45.1708 74.526 45.5796 75.8034 45.9372C77.0809 46.2949 78.4094 46.4993 79.7891 46.4993C83.2638 46.4993 86.1253 45.3241 88.5269 42.9735C90.8774 40.5719 92.0527 37.7104 92.0527 34.2357V11.2415H86.9429V13.7964L86.0742 13.0299C85.5121 12.5189 84.6434 12.0079 83.4171 11.4969C82.1907 10.986 80.8622 10.7305 79.5336 10.7305C76.4166 10.7305 73.7595 11.9057 71.4601 14.3074C69.1606 16.709 68.0365 19.5705 68.0365 22.9941C68.0365 26.4177 69.1606 29.2792 71.4601 31.6808C73.7595 34.0824 76.4166 35.2577 79.5336 35.2577C80.4023 35.2577 81.2199 35.1555 82.0885 34.9511C82.9061 34.6956 83.5704 34.4401 84.1325 34.1846C84.6945 33.9291 85.2055 33.6225 85.6654 33.2648C86.1253 32.9072 86.483 32.6517 86.5852 32.5495L86.9429 32.1918V34.2868ZM73.1463 22.9941C73.1463 20.8479 73.8106 19.0595 75.1903 17.5777C76.5699 16.0958 78.2051 15.3293 80.0446 15.3293C81.8841 15.3293 83.5193 16.0958 84.8989 17.5777C86.2275 19.0595 86.9429 20.8479 86.9429 22.9941C86.9429 25.1402 86.2275 26.9287 84.8989 28.4105C83.5193 29.8924 81.8841 30.6588 80.0446 30.6588C78.2051 30.6588 76.5699 29.8924 75.1903 28.4105C73.8106 26.9287 73.1463 25.1402 73.1463 22.9941Z"
                  fill="white"/>
            <path d="M118.724 35.7687V19.9282C118.724 17.3222 117.753 15.1249 115.863 13.3876C113.972 11.5991 111.519 10.7305 108.504 10.7305C107.329 10.7305 106.154 10.8838 105.03 11.1904C103.906 11.548 102.986 11.9057 102.321 12.3145C101.657 12.7233 100.993 13.1832 100.38 13.7453C99.7666 14.2563 99.4089 14.6139 99.2045 14.8183C99.0512 15.0227 98.8979 15.176 98.7957 15.3293L102.117 18.6507L102.781 17.782C103.19 17.22 103.906 16.709 104.979 16.1469C106.052 15.5848 107.227 15.3293 108.504 15.3293C109.986 15.3293 111.213 15.7892 112.183 16.6579C113.154 17.5266 113.614 18.6507 113.614 19.9282L104.672 21.4611C102.475 21.8188 100.686 22.6875 99.46 24.0672C98.1825 25.4468 97.5182 27.1331 97.5182 29.1259C97.5182 31.0165 98.3358 32.6517 99.971 34.0824C101.657 35.5643 103.701 36.2797 106.205 36.2797C107.074 36.2797 107.891 36.1775 108.709 35.922C109.577 35.7176 110.242 35.4621 110.804 35.2066C111.366 34.9511 111.877 34.6445 112.337 34.2868C112.797 33.9291 113.103 33.6736 113.308 33.5715C113.461 33.4182 113.563 33.2649 113.614 33.2138V35.7687H118.724ZM106.971 31.6808C105.643 31.6808 104.57 31.3742 103.803 30.761C102.986 30.1479 102.628 29.4325 102.628 28.6149C102.628 27.7462 102.884 26.9798 103.446 26.4177C104.008 25.8556 104.774 25.4468 105.694 25.2935L113.614 24.0161V24.527C113.614 26.8265 113.052 28.5638 111.877 29.8413C110.702 31.0676 109.066 31.6808 106.971 31.6808Z"
                  fill="white"/>
            <path d="M130 0H124.89V35.7689H130V0Z" fill="white"/>
            <path d="M0 53.1185H1.59915V58.7253H5.06396V60.0283H0V53.1185Z" fill="white"/>
            <path d="M15.5016 58.5477H12.2934L11.6814 60.0283H10.0428L13.1226 53.1185H14.702L17.7917 60.0283H16.1136L15.5016 58.5477ZM14.9982 57.3335L13.9025 54.688L12.8067 57.3335H14.9982Z"
                  fill="white"/>
            <path d="M33.5121 53.1185L31.2516 60.0283H29.534L28.0138 55.3494L26.4443 60.0283H24.7366L22.4662 53.1185H24.1245L25.6842 57.9751L27.313 53.1185H28.7937L30.3731 58.0146L31.9821 53.1185H33.5121Z"
                  fill="white"/>
            <path d="M50.5232 60.1468C49.819 60.1468 49.1807 59.9954 48.6082 59.6927C48.0422 59.3834 47.5947 58.959 47.2657 58.4193C46.9432 57.8731 46.782 57.2578 46.782 56.5734C46.782 55.889 46.9432 55.277 47.2657 54.7373C47.5947 54.1911 48.0422 53.7667 48.6082 53.464C49.1807 53.1547 49.8223 53 50.5331 53C51.1319 53 51.6716 53.1053 52.152 53.3159C52.6389 53.5265 53.047 53.8292 53.376 54.224L52.3494 55.1717C51.8821 54.6321 51.303 54.3622 50.612 54.3622C50.1843 54.3622 49.8026 54.4577 49.467 54.6485C49.1313 54.8328 48.8681 55.0927 48.6773 55.4283C48.493 55.764 48.4009 56.1456 48.4009 56.5734C48.4009 57.0012 48.493 57.3828 48.6773 57.7185C48.8681 58.0541 49.1313 58.3173 49.467 58.5082C49.8026 58.6924 50.1843 58.7846 50.612 58.7846C51.303 58.7846 51.8821 58.5115 52.3494 57.9653L53.376 58.9129C53.047 59.3143 52.6389 59.6203 52.152 59.8309C51.665 60.0415 51.1221 60.1468 50.5232 60.1468Z"
                  fill="white"/>
            <path d="M62.5933 60.1468C61.876 60.1468 61.2278 59.9922 60.6487 59.6829C60.0761 59.3736 59.6253 58.9491 59.2963 58.4095C58.9738 57.8632 58.8126 57.2512 58.8126 56.5734C58.8126 55.8956 58.9738 55.2868 59.2963 54.7472C59.6253 54.201 60.0761 53.7733 60.6487 53.464C61.2278 53.1547 61.876 53 62.5933 53C63.3106 53 63.9555 53.1547 64.5281 53.464C65.1006 53.7733 65.5514 54.201 65.8804 54.7472C66.2095 55.2868 66.374 55.8956 66.374 56.5734C66.374 57.2512 66.2095 57.8632 65.8804 58.4095C65.5514 58.9491 65.1006 59.3736 64.5281 59.6829C63.9555 59.9922 63.3106 60.1468 62.5933 60.1468ZM62.5933 58.7846C63.0013 58.7846 63.3698 58.6924 63.6989 58.5082C64.0279 58.3173 64.2846 58.0541 64.4688 57.7185C64.6597 57.3828 64.7551 57.0012 64.7551 56.5734C64.7551 56.1456 64.6597 55.764 64.4688 55.4283C64.2846 55.0927 64.0279 54.8328 63.6989 54.6485C63.3698 54.4577 63.0013 54.3622 62.5933 54.3622C62.1853 54.3622 61.8168 54.4577 61.4877 54.6485C61.1587 54.8328 60.8987 55.0927 60.7079 55.4283C60.5236 55.764 60.4315 56.1456 60.4315 56.5734C60.4315 57.0012 60.5236 57.3828 60.7079 57.7185C60.8987 58.0541 61.1587 58.3173 61.4877 58.5082C61.8168 58.6924 62.1853 58.7846 62.5933 58.7846Z"
                  fill="white"/>
            <path d="M78.7995 60.0283L78.7896 55.8824L76.7561 59.2979H76.0355L74.0119 55.9713V60.0283H72.5115V53.1185H73.8342L76.4205 57.4125L78.9673 53.1185H80.2802L80.2999 60.0283H78.7995Z"
                  fill="white"/>
            <path d="M89.8659 53.1185C90.478 53.1185 91.0077 53.2205 91.4552 53.4245C91.9093 53.6285 92.2581 53.918 92.5016 54.2931C92.7451 54.6682 92.8668 55.1125 92.8668 55.6258C92.8668 56.1325 92.7451 56.5767 92.5016 56.9584C92.2581 57.3335 91.9093 57.623 91.4552 57.8271C91.0077 58.0245 90.478 58.1232 89.8659 58.1232H88.4741V60.0283H86.8749V53.1185H89.8659ZM89.7771 56.8202C90.2575 56.8202 90.6227 56.7182 90.8728 56.5142C91.1229 56.3036 91.2479 56.0074 91.2479 55.6258C91.2479 55.2375 91.1229 54.9414 90.8728 54.7373C90.6227 54.5268 90.2575 54.4215 89.7771 54.4215H88.4741V56.8202H89.7771Z"
                  fill="white"/>
            <path d="M103.148 58.5477H99.9396L99.3276 60.0283H97.6889L100.769 53.1185H102.348L105.438 60.0283H103.76L103.148 58.5477ZM102.644 57.3335L101.549 54.688L100.453 57.3335H102.644Z"
                  fill="white"/>
            <path d="M117.428 53.1185V60.0283H116.115L112.67 55.8331V60.0283H111.09V53.1185H112.413L115.848 57.3137V53.1185H117.428Z"
                  fill="white"/>
            <path d="M127.315 57.5803V60.0283H125.716V57.5605L123.041 53.1185H124.739L126.585 56.1884L128.43 53.1185H130L127.315 57.5803Z"
                  fill="white"/>
            <path fill-rule="evenodd" clip-rule="evenodd" d="M149.175 0H155L139.825 47H134L149.175 0Z" fill="#F0145A"/>
            <path d="M167.64 35.18C166.104 35.18 164.628 34.964 163.212 34.532C161.82 34.076 160.728 33.512 159.936 32.84L161.088 30.824C161.88 31.448 162.876 31.964 164.076 32.372C165.276 32.756 166.524 32.948 167.82 32.948C169.548 32.948 170.82 32.684 171.636 32.156C172.476 31.604 172.896 30.836 172.896 29.852C172.896 29.156 172.668 28.616 172.212 28.232C171.756 27.824 171.18 27.524 170.484 27.332C169.788 27.116 168.864 26.912 167.712 26.72C166.176 26.432 164.94 26.144 164.004 25.856C163.068 25.544 162.264 25.028 161.592 24.308C160.944 23.588 160.62 22.592 160.62 21.32C160.62 19.736 161.28 18.44 162.6 17.432C163.92 16.424 165.756 15.92 168.108 15.92C169.332 15.92 170.556 16.088 171.78 16.424C173.004 16.736 174.012 17.156 174.804 17.684L173.688 19.736C172.128 18.656 170.268 18.116 168.108 18.116C166.476 18.116 165.24 18.404 164.4 18.98C163.584 19.556 163.176 20.312 163.176 21.248C163.176 21.968 163.404 22.544 163.86 22.976C164.34 23.408 164.928 23.732 165.624 23.948C166.32 24.14 167.28 24.344 168.504 24.56C170.016 24.848 171.228 25.136 172.14 25.424C173.052 25.712 173.832 26.204 174.48 26.9C175.128 27.596 175.452 28.556 175.452 29.78C175.452 31.436 174.756 32.756 173.364 33.74C171.996 34.7 170.088 35.18 167.64 35.18ZM196.665 26.324H180.825C180.969 28.292 181.725 29.888 183.093 31.112C184.461 32.312 186.189 32.912 188.277 32.912C189.453 32.912 190.533 32.708 191.517 32.3C192.501 31.868 193.353 31.244 194.073 30.428L195.513 32.084C194.673 33.092 193.617 33.86 192.345 34.388C191.097 34.916 189.717 35.18 188.205 35.18C186.261 35.18 184.533 34.772 183.021 33.956C181.533 33.116 180.369 31.964 179.529 30.5C178.689 29.036 178.269 27.38 178.269 25.532C178.269 23.684 178.665 22.028 179.457 20.564C180.273 19.1 181.377 17.96 182.769 17.144C184.185 16.328 185.769 15.92 187.521 15.92C189.273 15.92 190.845 16.328 192.237 17.144C193.629 17.96 194.721 19.1 195.513 20.564C196.305 22.004 196.701 23.66 196.701 25.532L196.665 26.324ZM187.521 18.116C185.697 18.116 184.161 18.704 182.913 19.88C181.689 21.032 180.993 22.544 180.825 24.416H194.253C194.085 22.544 193.377 21.032 192.129 19.88C190.905 18.704 189.369 18.116 187.521 18.116ZM204.352 19.772C204.952 18.5 205.84 17.54 207.016 16.892C208.216 16.244 209.692 15.92 211.444 15.92V18.404L210.832 18.368C208.84 18.368 207.28 18.98 206.152 20.204C205.024 21.428 204.46 23.144 204.46 25.352V35H201.904V16.064H204.352V19.772ZM232.792 16.064L224.368 35H221.74L213.352 16.064H216.016L223.108 32.192L230.272 16.064H232.792ZM236.392 16.064H238.948V35H236.392V16.064ZM237.688 11.924C237.16 11.924 236.716 11.744 236.356 11.384C235.996 11.024 235.816 10.592 235.816 10.088C235.816 9.608 235.996 9.188 236.356 8.828C236.716 8.468 237.16 8.288 237.688 8.288C238.216 8.288 238.66 8.468 239.02 8.828C239.38 9.164 239.56 9.572 239.56 10.052C239.56 10.58 239.38 11.024 239.02 11.384C238.66 11.744 238.216 11.924 237.688 11.924ZM253.908 35.18C252.036 35.18 250.356 34.772 248.868 33.956C247.404 33.14 246.252 32 245.412 30.536C244.572 29.048 244.152 27.38 244.152 25.532C244.152 23.684 244.572 22.028 245.412 20.564C246.252 19.1 247.404 17.96 248.868 17.144C250.356 16.328 252.036 15.92 253.908 15.92C255.54 15.92 256.992 16.244 258.264 16.892C259.56 17.516 260.58 18.44 261.324 19.664L259.416 20.96C258.792 20.024 258 19.328 257.04 18.872C256.08 18.392 255.036 18.152 253.908 18.152C252.54 18.152 251.304 18.464 250.2 19.088C249.12 19.688 248.268 20.552 247.644 21.68C247.044 22.808 246.744 24.092 246.744 25.532C246.744 26.996 247.044 28.292 247.644 29.42C248.268 30.524 249.12 31.388 250.2 32.012C251.304 32.612 252.54 32.912 253.908 32.912C255.036 32.912 256.08 32.684 257.04 32.228C258 31.772 258.792 31.076 259.416 30.14L261.324 31.436C260.58 32.66 259.56 33.596 258.264 34.244C256.968 34.868 255.516 35.18 253.908 35.18ZM282.517 26.324H266.677C266.821 28.292 267.577 29.888 268.945 31.112C270.313 32.312 272.041 32.912 274.129 32.912C275.305 32.912 276.385 32.708 277.369 32.3C278.353 31.868 279.205 31.244 279.925 30.428L281.365 32.084C280.525 33.092 279.469 33.86 278.197 34.388C276.949 34.916 275.569 35.18 274.057 35.18C272.113 35.18 270.385 34.772 268.873 33.956C267.385 33.116 266.221 31.964 265.381 30.5C264.541 29.036 264.121 27.38 264.121 25.532C264.121 23.684 264.517 22.028 265.309 20.564C266.125 19.1 267.229 17.96 268.621 17.144C270.037 16.328 271.621 15.92 273.373 15.92C275.125 15.92 276.697 16.328 278.089 17.144C279.481 17.96 280.573 19.1 281.365 20.564C282.157 22.004 282.553 23.66 282.553 25.532L282.517 26.324ZM273.373 18.116C271.549 18.116 270.013 18.704 268.765 19.88C267.541 21.032 266.845 22.544 266.677 24.416H280.105C279.937 22.544 279.229 21.032 277.981 19.88C276.757 18.704 275.221 18.116 273.373 18.116ZM292.831 35.18C291.295 35.18 289.819 34.964 288.403 34.532C287.011 34.076 285.919 33.512 285.127 32.84L286.279 30.824C287.071 31.448 288.067 31.964 289.267 32.372C290.467 32.756 291.715 32.948 293.011 32.948C294.739 32.948 296.011 32.684 296.827 32.156C297.667 31.604 298.087 30.836 298.087 29.852C298.087 29.156 297.859 28.616 297.403 28.232C296.947 27.824 296.371 27.524 295.675 27.332C294.979 27.116 294.055 26.912 292.903 26.72C291.367 26.432 290.131 26.144 289.195 25.856C288.259 25.544 287.455 25.028 286.783 24.308C286.135 23.588 285.811 22.592 285.811 21.32C285.811 19.736 286.471 18.44 287.791 17.432C289.111 16.424 290.947 15.92 293.299 15.92C294.523 15.92 295.747 16.088 296.971 16.424C298.195 16.736 299.203 17.156 299.995 17.684L298.879 19.736C297.319 18.656 295.459 18.116 293.299 18.116C291.667 18.116 290.431 18.404 289.591 18.98C288.775 19.556 288.367 20.312 288.367 21.248C288.367 21.968 288.595 22.544 289.051 22.976C289.531 23.408 290.119 23.732 290.815 23.948C291.511 24.14 292.471 24.344 293.695 24.56C295.207 24.848 296.419 25.136 297.331 25.424C298.243 25.712 299.023 26.204 299.671 26.9C300.319 27.596 300.643 28.556 300.643 29.78C300.643 31.436 299.947 32.756 298.555 33.74C297.187 34.7 295.279 35.18 292.831 35.18Z"
                  fill="white"/>
        </g>
        <defs>
            <clipPath id="clip0_174026_2041">
                <rect width="302" height="60" fill="white"/>
            </clipPath>
        </defs>
    </symbol>


    <symbol id="facebook_header" viewBox="0 0 24 25">
        <path d="M24 12.5733C24 5.90541 18.6274 0.5 12 0.5C5.37258 0.5 0 5.90541 0 12.5733C0 18.5995 4.38823 23.5943 10.125 24.5V16.0633H7.07813V12.5733H10.125V9.91343C10.125 6.88755 11.9165 5.21615 14.6576 5.21615C15.9705 5.21615 17.3438 5.45195 17.3438 5.45195V8.42313H15.8306C14.3399 8.42313 13.875 9.35379 13.875 10.3086V12.5733H17.2031L16.6711 16.0633H13.875V24.5C19.6118 23.5943 24 18.5995 24 12.5733Z"
              fill="currentColor"/>
    </symbol>

    <symbol id="burger_exite" viewBox="0 0 32 32" fill="currentColor">
        <path d="M7 7L25 25" stroke="#EC6F5D" stroke-width="2"/>
        <path d="M25 7L7 25" stroke="#EC6F5D" stroke-width="2"/>
    </symbol>

    <symbol id="main-page_H" viewBox="0 0 873 1000">
        <g clip-path="url(#clip0_22728_11351)">
            <path fill-rule="evenodd" clip-rule="evenodd"
                  d="M306.774 425.531H540.779C608.001 425.531 664.103 454.208 698.986 502.665C733.843 551.126 734.918 631.984 714.591 695.241L688.603 775.999C677.75 809.719 626.932 969.19 617.021 999.999H489.361C489.361 999.999 491.313 1001.71 597.956 670.212C607.372 640.958 612.748 593.473 597.956 572.936C583.189 552.403 558.273 540.25 525.304 540.25H334.024C296.466 540.25 263.182 564.677 251.563 600.757L306.774 425.531Z"
                  fill="url(#paint0_linear_22728_11351)"/>
            <path fill-rule="evenodd" clip-rule="evenodd"
                  d="M124.336 1000H-0.462402C105.755 666.469 213.178 333.33 320.023 0H444.65C444.125 1.66705 443.593 3.33854 443.053 5.01434C270.17 536.959 329.143 357.318 124.336 1000Z"
                  fill="#F0145A"/>
        </g>
        <defs>
            <linearGradient id="paint0_linear_22728_11351" x1="653.095" y1="999.998" x2="336.049" y2="646.678"
                            gradientUnits="userSpaceOnUse">
                <stop stop-color="#F0145A"/>
                <stop offset="1" stop-color="#693264"/>
            </linearGradient>
            <clipPath id="clip0_22728_11351">
                <rect width="872.34" height="1000" fill="white"/>
            </clipPath>
        </defs>
    </symbol>

    <symbol id="scroll_down" viewBox="0 0 42 42" fill="none">
        <g clip-path="url(#clip0_22728_11340)">
            <circle opacity="0.5" cx="21" cy="21" r="20" stroke="currentColor" stroke-width="2"/>
            <path d="M12 18L21 27L30 18" stroke="currentColor" stroke-width="2"/>
        </g>
        <defs>
            <clipPath id="clip0_22728_11340">
                <rect width="42" height="42" fill="currentColor"/>
            </clipPath>
        </defs>
    </symbol>


    <symbol id="line-in-Experience" viewBox="0 0 4 303">
        <rect width="4" height="303" fill="white" fill-opacity="0.3"/>
    </symbol>

    <symbol id="arrow" viewBox="0 0 12 13">
        <path d="M3.5 2L8 6.5L3.5 11" stroke="currentColor" stroke-width="2"/>
    </symbol>

    <symbol id="IT_and_e-commerce" viewBox="0 0 92 92">
        <rect width="92" height="92" rx="24" fill="white"/>
        <path d="M37.7339 42.125C38.8379 42.125 39.7339 41.229 39.7339 40.125V32.325C39.7339 28.838 42.5709 26 46.0579 26C49.5449 26 52.3829 28.838 52.3829 32.325V40.125C52.3829 41.229 53.2779 42.125 54.3829 42.125C55.4869 42.125 56.3829 41.229 56.3829 40.125V32.325C56.3839 26.632 51.7519 22 46.0579 22C40.3659 22 35.7339 26.632 35.7339 32.325V40.125C35.7339 41.229 36.6299 42.125 37.7339 42.125Z"
              fill="url(#paint0_linear_22728_10152)"/>
        <path d="M69 37.6309H58.384V40.1249C58.384 42.3309 56.59 44.1249 54.384 44.1249C52.178 44.1249 50.384 42.3309 50.384 40.1249V37.6309H41.735V40.1249C41.735 42.3309 39.941 44.1249 37.735 44.1249C35.529 44.1249 33.735 42.3309 33.735 40.1249V37.6309H23C22.448 37.6309 22.107 38.0659 22.238 38.6019L29.236 67.0989C29.658 68.7009 31.344 69.9999 33 69.9999H59C60.658 69.9999 62.342 68.7009 62.766 67.0989L69.762 38.6019C69.893 38.0649 69.553 37.6309 69 37.6309Z"
              fill="url(#paint1_linear_22728_10152)"/>
        <path d="M42.6001 48.4C42.6001 47.6265 43.2266 47 44.0001 47C44.7736 47 45.4001 47.6265 45.4001 48.4V55.35L45.4001 54C45.4001 53.2265 46.0266 52.6 46.8001 52.6C47.5736 52.6 48.2001 53.2265 48.2001 54V55.6764C48.2127 54.9141 48.8346 53.3 49.6 53.3C50.3731 53.3 50.9999 53.9268 51 54.7C51 54.7 51.0411 55.7411 51.1332 55.8033C51.3572 55.3285 51.8402 54 52.4 54C53.1732 54 53.8 54.6268 53.8 55.4V62.4C53.8 63.9463 52.5463 65.2 51 65.2H46.3198C44.8344 65.2 43.4099 64.6099 42.3599 63.5599L40.15 61.35L37 59.9402C37.0051 58.6033 38.0526 58.2 39.1 58.2C40.0023 58.2 40.8136 58.3407 42.6 59.25L42.6001 48.4Z"
              fill="white"/>
        <defs>
            <linearGradient id="paint0_linear_22728_10152" x1="46.0584" y1="22" x2="46.0584" y2="42.125"
                            gradientUnits="userSpaceOnUse">
                <stop stop-color="#EF8080"/>
                <stop offset="1" stop-color="#F0145A"/>
            </linearGradient>
            <linearGradient id="paint1_linear_22728_10152" x1="46" y1="37.6309" x2="46" y2="69.9999"
                            gradientUnits="userSpaceOnUse">
                <stop stop-color="#EF8080"/>
                <stop offset="1" stop-color="#F0145A"/>
            </linearGradient>
        </defs>
    </symbol>

    <symbol id="Comprehensive_daily_legal_support" viewBox="0 0 92 92">
        <rect width="92" height="92" rx="24" fill="white"/>
        <path fill-rule="evenodd" clip-rule="evenodd"
              d="M67.4513 49.0762V66.3713C67.4513 69.4647 65.027 71.9997 62.0632 71.9997H29.9702C27.0064 71.9997 24.5822 69.4647 24.5822 66.3713V49.0762H41.2482V56.587L46.0167 59.7204L50.7852 56.587V49.0762H67.4513Z"
              fill="url(#paint0_linear_22728_10158)"/>
        <path fill-rule="evenodd" clip-rule="evenodd"
              d="M42.9185 49.0762V55.6847L46.0166 57.7202L49.1147 55.6847V49.0762H42.9185Z"
              fill="url(#paint1_linear_22728_10158)"/>
        <path fill-rule="evenodd" clip-rule="evenodd"
              d="M26.0734 29.1426H65.9599C67.8423 29.1426 69.3808 30.8507 69.3808 32.938V43.1912C69.3808 45.2786 67.8423 46.9867 65.9599 46.9867H50.314H41.7194H26.0734C24.191 46.9867 22.6526 45.2786 22.6526 43.1912V32.938C22.6526 30.8507 24.191 29.1426 26.0734 29.1426Z"
              fill="url(#paint2_linear_22728_10158)"/>
        <path fill-rule="evenodd" clip-rule="evenodd"
              d="M37.7119 19.9551H54.3214C55.8646 19.9551 57.1274 21.2179 57.1274 22.761V27.1384H53.5699V24.5516C53.5699 23.8542 52.9998 23.2817 52.3024 23.2817H39.731C39.0336 23.2817 38.4635 23.8542 38.4635 24.5516V27.1384H34.9059V22.761C34.9059 21.2179 36.1687 19.9551 37.7119 19.9551Z"
              fill="url(#paint3_linear_22728_10158)"/>
        <defs>
            <linearGradient id="paint0_linear_22728_10158" x1="46.0167" y1="49.0762" x2="46.0167"
                            y2="71.9997" gradientUnits="userSpaceOnUse">
                <stop stop-color="#EF8080"/>
                <stop offset="1" stop-color="#F0145A"/>
            </linearGradient>
            <linearGradient id="paint1_linear_22728_10158" x1="46.0166" y1="49.0762" x2="46.0166"
                            y2="57.7202" gradientUnits="userSpaceOnUse">
                <stop stop-color="#EF8080"/>
                <stop offset="1" stop-color="#F0145A"/>
            </linearGradient>
            <linearGradient id="paint2_linear_22728_10158" x1="46.0167" y1="29.1426" x2="46.0167"
                            y2="46.9867" gradientUnits="userSpaceOnUse">
                <stop stop-color="#EF8080"/>
                <stop offset="1" stop-color="#F0145A"/>
            </linearGradient>
            <linearGradient id="paint3_linear_22728_10158" x1="46.0167" y1="19.9551" x2="46.0167"
                            y2="27.1384" gradientUnits="userSpaceOnUse">
                <stop stop-color="#EF8080"/>
                <stop offset="1" stop-color="#F0145A"/>
            </linearGradient>
        </defs>
    </symbol>

    <symbol id="Structuring_corporate_relationships" viewBox="0 0 92 92">
        <rect width="92" height="92" rx="24" fill="white"/>
        <g clip-path="url(#clip0_22728_10164)">
            <path d="M74.5264 51.7273C73.8389 51.4426 73.1151 51.2982 72.3752 51.2982C70.7435 51.2982 69.2362 51.9946 68.1896 53.1615L66.9696 52.6562L63.4895 51.2147C63.9834 49.5616 64.2499 47.8113 64.2499 45.9998C64.2499 44.1883 63.9832 42.4381 63.4895 40.7849L66.9696 39.3435L68.1896 38.8381C69.2362 40.0051 70.7435 40.7014 72.3752 40.7014C73.1151 40.7014 73.8389 40.5571 74.5264 40.2722C77.3917 39.0852 78.7575 35.7883 77.5705 32.9227C76.6965 30.8128 74.656 29.4493 72.3722 29.4493C71.6324 29.4493 70.9086 29.5937 70.2211 29.8786C67.9629 30.814 66.6374 33.0598 66.7574 35.3722L65.5303 35.8805L62.0513 37.3215C60.3611 34.208 57.7916 31.6383 54.6781 29.9483L56.1191 26.4694L56.6269 25.2436C56.7253 25.2487 56.8239 25.2517 56.9229 25.2517C59.2068 25.2517 61.2471 23.8884 62.1213 21.7784C63.3081 18.9129 61.9425 15.6159 59.077 14.4289C58.3894 14.1444 57.6658 14 56.9259 14C54.642 14 52.6017 15.3634 51.7275 17.4734C50.7922 19.7316 51.4429 22.257 53.1629 23.8072L52.6564 25.0301L51.2149 28.5102C49.5618 28.0165 47.8115 27.7498 46 27.7498C44.1885 27.7498 42.4383 28.0165 40.7852 28.5102L39.3437 25.0301L38.8372 23.8072C40.5572 22.257 41.2079 19.7316 40.2725 17.4732C39.3984 15.3634 37.3578 14 35.0741 14C34.3342 14 33.6104 14.1444 32.9229 14.4292C30.0576 15.6162 28.6918 18.9131 29.8788 21.7787C30.7528 23.8886 32.7933 25.2521 35.0771 25.2521C35.1761 25.2521 35.2747 25.2491 35.3731 25.244L35.8808 26.4697L37.3218 29.9487C34.2083 31.6388 31.6387 34.2083 29.9487 37.3218L26.4697 35.8808L25.2426 35.3726C25.3626 33.0602 24.0371 30.8143 21.7788 29.8788C21.0913 29.5941 20.3676 29.4497 19.6277 29.4497C17.3438 29.4497 15.3035 30.8131 14.4293 32.9231C13.2425 35.7886 14.6081 39.0856 17.4736 40.2726C18.1611 40.5573 18.8848 40.7017 19.6247 40.7017C21.2565 40.7017 22.7637 40.0053 23.8103 38.8383L25.0303 39.3437L28.5104 40.7852C28.0166 42.4383 27.7501 44.1886 27.7501 46.0001C27.7501 47.8116 28.0167 49.5618 28.5104 51.2149L25.0302 52.6562L23.8102 53.1615C22.7636 51.9946 21.2563 51.2982 19.6246 51.2982C18.8847 51.2982 18.161 51.4426 17.4735 51.7274C14.6081 52.9144 13.2423 56.2113 14.4293 59.0769C15.3033 61.1868 17.3438 62.5503 19.6276 62.5503C20.3675 62.5503 21.0912 62.4059 21.7787 62.121C24.037 61.1857 25.3624 58.9398 25.2424 56.6274L26.4696 56.1192L29.9486 54.6782C31.6387 57.7917 34.2082 60.3613 37.3217 62.0513L35.8807 65.5303L35.3729 66.756C35.2746 66.7509 35.1759 66.7479 35.0769 66.7479C32.7931 66.7479 30.7527 68.1113 29.8786 70.2213C28.6917 73.0868 30.0573 76.3838 32.9228 77.5708C33.6103 77.8555 34.3341 77.9999 35.0739 77.9999C37.3578 77.9999 39.3982 76.6365 40.2723 74.5265C41.2077 72.2683 40.5569 69.7429 38.8369 68.1926L39.3434 66.9698L40.7849 63.4897C42.438 63.9834 44.1883 64.25 45.9998 64.25C47.8113 64.25 49.5615 63.9834 51.2146 63.4897L52.6561 66.9698L53.1626 68.1926C51.4426 69.7429 50.7919 72.2683 51.7273 74.5266C52.6013 76.6365 54.6418 78 56.9255 78C57.6654 78 58.3891 77.8556 59.0766 77.5708C61.942 76.3838 63.3078 73.0869 62.1208 70.2213C61.2468 68.1114 59.2063 66.7479 56.9225 66.7479C56.8235 66.7479 56.7249 66.7509 56.6265 66.756L56.1188 65.5303L54.6778 62.0513C57.7913 60.3612 60.3609 57.7917 62.0509 54.6782L65.5299 56.1192L66.757 56.6274C66.637 58.9398 67.9625 61.1857 70.2207 62.1212C70.9082 62.4059 71.632 62.5503 72.3719 62.5503C74.6557 62.5503 76.6961 61.1869 77.5702 59.0769C78.7575 56.2113 77.392 52.9143 74.5264 51.7273ZM46 60.4998C38.0048 60.4998 31.5001 53.995 31.5001 45.9998C31.5001 38.0046 38.0048 31.4998 46 31.4998C53.9953 31.4998 60.5 38.0046 60.5 45.9998C60.5 53.995 53.9951 60.4998 46 60.4998Z"
                  fill="black"/>
            <path d="M74.5264 51.7273C73.8389 51.4426 73.1151 51.2982 72.3752 51.2982C70.7435 51.2982 69.2362 51.9946 68.1896 53.1615L66.9696 52.6562L63.4895 51.2147C63.9834 49.5616 64.2499 47.8113 64.2499 45.9998C64.2499 44.1883 63.9832 42.4381 63.4895 40.7849L66.9696 39.3435L68.1896 38.8381C69.2362 40.0051 70.7435 40.7014 72.3752 40.7014C73.1151 40.7014 73.8389 40.5571 74.5264 40.2722C77.3917 39.0852 78.7575 35.7883 77.5705 32.9227C76.6965 30.8128 74.656 29.4493 72.3722 29.4493C71.6324 29.4493 70.9086 29.5937 70.2211 29.8786C67.9629 30.814 66.6374 33.0598 66.7574 35.3722L65.5303 35.8805L62.0513 37.3215C60.3611 34.208 57.7916 31.6383 54.6781 29.9483L56.1191 26.4694L56.6269 25.2436C56.7253 25.2487 56.8239 25.2517 56.9229 25.2517C59.2068 25.2517 61.2471 23.8884 62.1213 21.7784C63.3081 18.9129 61.9425 15.6159 59.077 14.4289C58.3894 14.1444 57.6658 14 56.9259 14C54.642 14 52.6017 15.3634 51.7275 17.4734C50.7922 19.7316 51.4429 22.257 53.1629 23.8072L52.6564 25.0301L51.2149 28.5102C49.5618 28.0165 47.8115 27.7498 46 27.7498C44.1885 27.7498 42.4383 28.0165 40.7852 28.5102L39.3437 25.0301L38.8372 23.8072C40.5572 22.257 41.2079 19.7316 40.2725 17.4732C39.3984 15.3634 37.3578 14 35.0741 14C34.3342 14 33.6104 14.1444 32.9229 14.4292C30.0576 15.6162 28.6918 18.9131 29.8788 21.7787C30.7528 23.8886 32.7933 25.2521 35.0771 25.2521C35.1761 25.2521 35.2747 25.2491 35.3731 25.244L35.8808 26.4697L37.3218 29.9487C34.2083 31.6388 31.6387 34.2083 29.9487 37.3218L26.4697 35.8808L25.2426 35.3726C25.3626 33.0602 24.0371 30.8143 21.7788 29.8788C21.0913 29.5941 20.3676 29.4497 19.6277 29.4497C17.3438 29.4497 15.3035 30.8131 14.4293 32.9231C13.2425 35.7886 14.6081 39.0856 17.4736 40.2726C18.1611 40.5573 18.8848 40.7017 19.6247 40.7017C21.2565 40.7017 22.7637 40.0053 23.8103 38.8383L25.0303 39.3437L28.5104 40.7852C28.0166 42.4383 27.7501 44.1886 27.7501 46.0001C27.7501 47.8116 28.0167 49.5618 28.5104 51.2149L25.0302 52.6562L23.8102 53.1615C22.7636 51.9946 21.2563 51.2982 19.6246 51.2982C18.8847 51.2982 18.161 51.4426 17.4735 51.7274C14.6081 52.9144 13.2423 56.2113 14.4293 59.0769C15.3033 61.1868 17.3438 62.5503 19.6276 62.5503C20.3675 62.5503 21.0912 62.4059 21.7787 62.121C24.037 61.1857 25.3624 58.9398 25.2424 56.6274L26.4696 56.1192L29.9486 54.6782C31.6387 57.7917 34.2082 60.3613 37.3217 62.0513L35.8807 65.5303L35.3729 66.756C35.2746 66.7509 35.1759 66.7479 35.0769 66.7479C32.7931 66.7479 30.7527 68.1113 29.8786 70.2213C28.6917 73.0868 30.0573 76.3838 32.9228 77.5708C33.6103 77.8555 34.3341 77.9999 35.0739 77.9999C37.3578 77.9999 39.3982 76.6365 40.2723 74.5265C41.2077 72.2683 40.5569 69.7429 38.8369 68.1926L39.3434 66.9698L40.7849 63.4897C42.438 63.9834 44.1883 64.25 45.9998 64.25C47.8113 64.25 49.5615 63.9834 51.2146 63.4897L52.6561 66.9698L53.1626 68.1926C51.4426 69.7429 50.7919 72.2683 51.7273 74.5266C52.6013 76.6365 54.6418 78 56.9255 78C57.6654 78 58.3891 77.8556 59.0766 77.5708C61.942 76.3838 63.3078 73.0869 62.1208 70.2213C61.2468 68.1114 59.2063 66.7479 56.9225 66.7479C56.8235 66.7479 56.7249 66.7509 56.6265 66.756L56.1188 65.5303L54.6778 62.0513C57.7913 60.3612 60.3609 57.7917 62.0509 54.6782L65.5299 56.1192L66.757 56.6274C66.637 58.9398 67.9625 61.1857 70.2207 62.1212C70.9082 62.4059 71.632 62.5503 72.3719 62.5503C74.6557 62.5503 76.6961 61.1869 77.5702 59.0769C78.7575 56.2113 77.392 52.9143 74.5264 51.7273ZM46 60.4998C38.0048 60.4998 31.5001 53.995 31.5001 45.9998C31.5001 38.0046 38.0048 31.4998 46 31.4998C53.9953 31.4998 60.5 38.0046 60.5 45.9998C60.5 53.995 53.9951 60.4998 46 60.4998Z"
                  fill="url(#paint0_linear_22728_10164)"/>
            <path d="M46.0001 35.25C40.0726 35.25 35.2501 40.0725 35.2501 46C35.2501 51.9275 40.0726 56.75 46.0001 56.75C51.9276 56.75 56.7501 51.9275 56.7501 46C56.7501 40.0725 51.9276 35.25 46.0001 35.25ZM47.8751 50.125H44.1251V41.875H47.8751V50.125Z"
                  fill="black"/>
            <path d="M46.0001 35.25C40.0726 35.25 35.2501 40.0725 35.2501 46C35.2501 51.9275 40.0726 56.75 46.0001 56.75C51.9276 56.75 56.7501 51.9275 56.7501 46C56.7501 40.0725 51.9276 35.25 46.0001 35.25ZM47.8751 50.125H44.1251V41.875H47.8751V50.125Z"
                  fill="url(#paint1_linear_22728_10164)"/>
        </g>
        <defs>
            <linearGradient id="paint0_linear_22728_10164" x1="45.9999" y1="14" x2="45.9999" y2="78"
                            gradientUnits="userSpaceOnUse">
                <stop stop-color="#EF8080"/>
                <stop offset="1" stop-color="#F0145A"/>
            </linearGradient>
            <linearGradient id="paint1_linear_22728_10164" x1="46.0001" y1="35.25" x2="46.0001"
                            y2="56.75" gradientUnits="userSpaceOnUse">
                <stop stop-color="#EF8080"/>
                <stop offset="1" stop-color="#F0145A"/>
            </linearGradient>
            <clipPath id="clip0_22728_10164">
                <rect width="64" height="64" fill="white" transform="translate(14 14)"/>
            </clipPath>
        </defs>
    </symbol>

    <symbol id="Building_contractual_relations" viewBox="0 0 92 92">
        <rect width="92" height="92" rx="24" fill="white"/>
        <path d="M56.0057 70H37.0057V76H56.0057V70Z" fill="black"/>
        <path d="M56.0057 70H37.0057V76H56.0057V70Z" fill="url(#paint0_linear_22728_10171)"/>
        <path d="M29.1727 16.4517L15.7376 29.8867L19.2732 33.4223L32.7082 19.9872L29.1727 16.4517Z"
              fill="black"/>
        <path d="M29.1727 16.4517L15.7376 29.8867L19.2732 33.4223L32.7082 19.9872L29.1727 16.4517Z"
              fill="url(#paint1_linear_22728_10171)"/>
        <path d="M63.1127 16.3199L59.5771 19.8555L73.0122 33.2905L76.5477 29.755L63.1127 16.3199Z"
              fill="black"/>
        <path d="M63.1127 16.3199L59.5771 19.8555L73.0122 33.2905L76.5477 29.755L63.1127 16.3199Z"
              fill="url(#paint2_linear_22728_10171)"/>
        <path d="M58.5563 23.7084L55.865 23.5944C55.089 23.4848 54.2981 23.5571 53.5548 23.8056C52.8115 24.054 52.1361 24.4718 51.5819 25.026L46.0774 30.5305L40.3239 24.7769C39.8243 24.2888 39.2011 23.9463 38.5213 23.7861C37.8415 23.626 37.1309 23.6543 36.466 23.868C35.8388 24.0587 35.1715 24.0755 34.5355 23.9164C33.8994 23.7573 33.3186 23.4284 32.855 22.9648L32.0011 22.1109L21.3945 32.7175L23.1225 34.4455L23.0084 37.1368C22.8988 37.9128 22.9712 38.7037 23.2196 39.447C23.468 40.1903 23.8858 40.8657 24.44 41.4199L34.0524 51.0324C34.1809 49.7705 34.7855 48.6051 35.7431 47.7734L32.7482 44.7785L33.4553 44.0714L36.5835 47.1996C37.0269 46.9472 37.5067 46.7649 38.0059 46.6591V42.9651L36.2837 41.243L36.9908 40.5358L38.0059 41.5509V36.201C37.9947 35.3168 38.3086 34.4592 38.8878 33.791C39.4671 33.1228 40.2715 32.6904 41.1484 32.576C41.4792 32.544 41.8127 32.559 42.1392 32.6208L40.9097 31.3914L41.6169 30.6843L43.413 32.4804C43.7311 31.864 44.2232 31.3547 44.8283 31.0154C45.4333 30.6762 46.1246 30.5221 46.8164 30.5721C47.6513 30.6697 48.4258 31.0562 49.0056 31.6647C49.5854 32.2733 49.9341 33.0655 49.9912 33.9041C50.5595 33.634 51.1893 33.5194 51.8164 33.5721C52.7075 33.6788 53.5272 34.1126 54.1165 34.7895C54.7059 35.4663 55.0228 36.3379 55.0058 37.2352V40.6591C55.9159 40.8491 56.755 41.289 57.4291 41.9293C58.1031 42.5696 58.5855 43.3851 58.8219 44.2842L61.6105 41.4957L62.3176 42.2029L59.0023 45.5181C59.0024 45.5319 59.0059 45.5447 59.0059 45.5585V48.8785C59.9043 48.7845 60.7436 48.3864 61.3848 47.7501L68.2249 40.9099C68.713 40.4104 69.0556 39.7871 69.2157 39.1073C69.3759 38.4276 69.3475 37.7169 69.1338 37.0521C68.943 36.4248 68.9263 35.7575 69.0854 35.1215C69.2445 34.4854 69.5734 33.9046 70.037 33.441L70.8909 32.5871L60.2843 21.9805L58.5563 23.7084Z"
              fill="black"/>
        <path d="M58.5563 23.7084L55.865 23.5944C55.089 23.4848 54.2981 23.5571 53.5548 23.8056C52.8115 24.054 52.1361 24.4718 51.5819 25.026L46.0774 30.5305L40.3239 24.7769C39.8243 24.2888 39.2011 23.9463 38.5213 23.7861C37.8415 23.626 37.1309 23.6543 36.466 23.868C35.8388 24.0587 35.1715 24.0755 34.5355 23.9164C33.8994 23.7573 33.3186 23.4284 32.855 22.9648L32.0011 22.1109L21.3945 32.7175L23.1225 34.4455L23.0084 37.1368C22.8988 37.9128 22.9712 38.7037 23.2196 39.447C23.468 40.1903 23.8858 40.8657 24.44 41.4199L34.0524 51.0324C34.1809 49.7705 34.7855 48.6051 35.7431 47.7734L32.7482 44.7785L33.4553 44.0714L36.5835 47.1996C37.0269 46.9472 37.5067 46.7649 38.0059 46.6591V42.9651L36.2837 41.243L36.9908 40.5358L38.0059 41.5509V36.201C37.9947 35.3168 38.3086 34.4592 38.8878 33.791C39.4671 33.1228 40.2715 32.6904 41.1484 32.576C41.4792 32.544 41.8127 32.559 42.1392 32.6208L40.9097 31.3914L41.6169 30.6843L43.413 32.4804C43.7311 31.864 44.2232 31.3547 44.8283 31.0154C45.4333 30.6762 46.1246 30.5221 46.8164 30.5721C47.6513 30.6697 48.4258 31.0562 49.0056 31.6647C49.5854 32.2733 49.9341 33.0655 49.9912 33.9041C50.5595 33.634 51.1893 33.5194 51.8164 33.5721C52.7075 33.6788 53.5272 34.1126 54.1165 34.7895C54.7059 35.4663 55.0228 36.3379 55.0058 37.2352V40.6591C55.9159 40.8491 56.755 41.289 57.4291 41.9293C58.1031 42.5696 58.5855 43.3851 58.8219 44.2842L61.6105 41.4957L62.3176 42.2029L59.0023 45.5181C59.0024 45.5319 59.0059 45.5447 59.0059 45.5585V48.8785C59.9043 48.7845 60.7436 48.3864 61.3848 47.7501L68.2249 40.9099C68.713 40.4104 69.0556 39.7871 69.2157 39.1073C69.3759 38.4276 69.3475 37.7169 69.1338 37.0521C68.943 36.4248 68.9263 35.7575 69.0854 35.1215C69.2445 34.4854 69.5734 33.9046 70.037 33.441L70.8909 32.5871L60.2843 21.9805L58.5563 23.7084Z"
              fill="url(#paint3_linear_22728_10171)"/>
        <path d="M43.8804 35.6901C43.8044 35.0405 43.476 34.4468 42.966 34.0373C42.4559 33.6278 41.8053 33.4353 41.1546 33.5015C40.5234 33.5886 39.9463 33.9046 39.5329 34.3894C39.1194 34.8742 38.8986 35.4941 38.9124 36.1311V47.4885C37.8515 47.4885 36.8341 47.9099 36.0839 48.66C35.3338 49.4102 34.9124 50.4276 34.9124 51.4885V61.1619C34.9205 61.8603 35.1189 62.5432 35.4864 63.1371C35.8538 63.7311 36.3763 64.2135 36.9976 64.5325C37.576 64.8412 38.0597 65.3012 38.3969 65.8634C38.7342 66.4256 38.9123 67.0689 38.9124 67.7245V68.9321H53.9124V66.4885L55.896 64.6661C56.5222 64.1948 57.0303 63.5844 57.3803 62.8831C57.7302 62.1818 57.9123 61.4088 57.9124 60.6251V45.4885C57.9124 44.4276 57.4909 43.4102 56.7408 42.66C55.9906 41.9099 54.9732 41.4885 53.9124 41.4885V37.1659C53.9293 36.5187 53.7062 35.888 53.286 35.3955C52.8657 34.903 52.2781 34.5834 51.6362 34.4983C51.0063 34.4426 50.3787 34.6285 49.8807 35.0183C49.3826 35.408 49.0513 35.9725 48.9539 36.5974H49.4124V52.0407H48.4124V36.5974H48.9124V34.1659C48.9293 33.5187 48.7062 32.888 48.286 32.3955C47.8657 31.903 47.2781 31.5834 46.6362 31.4983C46.2904 31.4673 45.942 31.5086 45.613 31.6196C45.2841 31.7306 44.9819 31.909 44.7256 32.1432C44.4694 32.3775 44.2647 32.6625 44.1247 32.9802C43.9847 33.2979 43.9124 33.6413 43.9124 33.9885V35.6901H44.4124V51.1335H43.4124V35.6901H43.8804ZM39.3115 56.0407H38.3115V48.0407H39.3115V56.0407ZM53.4124 41.799H54.4124V52.2423H53.4124V41.799Z"
              fill="black"/>
        <path d="M43.8804 35.6901C43.8044 35.0405 43.476 34.4468 42.966 34.0373C42.4559 33.6278 41.8053 33.4353 41.1546 33.5015C40.5234 33.5886 39.9463 33.9046 39.5329 34.3894C39.1194 34.8742 38.8986 35.4941 38.9124 36.1311V47.4885C37.8515 47.4885 36.8341 47.9099 36.0839 48.66C35.3338 49.4102 34.9124 50.4276 34.9124 51.4885V61.1619C34.9205 61.8603 35.1189 62.5432 35.4864 63.1371C35.8538 63.7311 36.3763 64.2135 36.9976 64.5325C37.576 64.8412 38.0597 65.3012 38.3969 65.8634C38.7342 66.4256 38.9123 67.0689 38.9124 67.7245V68.9321H53.9124V66.4885L55.896 64.6661C56.5222 64.1948 57.0303 63.5844 57.3803 62.8831C57.7302 62.1818 57.9123 61.4088 57.9124 60.6251V45.4885C57.9124 44.4276 57.4909 43.4102 56.7408 42.66C55.9906 41.9099 54.9732 41.4885 53.9124 41.4885V37.1659C53.9293 36.5187 53.7062 35.888 53.286 35.3955C52.8657 34.903 52.2781 34.5834 51.6362 34.4983C51.0063 34.4426 50.3787 34.6285 49.8807 35.0183C49.3826 35.408 49.0513 35.9725 48.9539 36.5974H49.4124V52.0407H48.4124V36.5974H48.9124V34.1659C48.9293 33.5187 48.7062 32.888 48.286 32.3955C47.8657 31.903 47.2781 31.5834 46.6362 31.4983C46.2904 31.4673 45.942 31.5086 45.613 31.6196C45.2841 31.7306 44.9819 31.909 44.7256 32.1432C44.4694 32.3775 44.2647 32.6625 44.1247 32.9802C43.9847 33.2979 43.9124 33.6413 43.9124 33.9885V35.6901H44.4124V51.1335H43.4124V35.6901H43.8804ZM39.3115 56.0407H38.3115V48.0407H39.3115V56.0407ZM53.4124 41.799H54.4124V52.2423H53.4124V41.799Z"
              fill="url(#paint4_linear_22728_10171)"/>
        <defs>
            <linearGradient id="paint0_linear_22728_10171" x1="46.5057" y1="70" x2="46.5057" y2="76"
                            gradientUnits="userSpaceOnUse">
                <stop stop-color="#EF8080"/>
                <stop offset="1" stop-color="#F0145A"/>
            </linearGradient>
            <linearGradient id="paint1_linear_22728_10171" x1="22.4551" y1="23.1692" x2="25.9907"
                            y2="26.7047" gradientUnits="userSpaceOnUse">
                <stop stop-color="#EF8080"/>
                <stop offset="1" stop-color="#F0145A"/>
            </linearGradient>
            <linearGradient id="paint2_linear_22728_10171" x1="61.3449" y1="18.0877" x2="74.78"
                            y2="31.5228" gradientUnits="userSpaceOnUse">
                <stop stop-color="#EF8080"/>
                <stop offset="1" stop-color="#F0145A"/>
            </linearGradient>
            <linearGradient id="paint3_linear_22728_10171" x1="46.1427" y1="21.9805" x2="46.1427"
                            y2="51.0324" gradientUnits="userSpaceOnUse">
                <stop stop-color="#EF8080"/>
                <stop offset="1" stop-color="#F0145A"/>
            </linearGradient>
            <linearGradient id="paint4_linear_22728_10171" x1="46.4124" y1="31.4883" x2="46.4124"
                            y2="68.9321" gradientUnits="userSpaceOnUse">
                <stop stop-color="#EF8080"/>
                <stop offset="1" stop-color="#F0145A"/>
            </linearGradient>
        </defs>
    </symbol>

    <symbol id="Protection_of_business_intellectual_property" viewBox="0 0 92 92">
        <rect width="92" height="92" rx="24" fill="white"/>
        <path d="M55.2317 51.6961C57.5839 51.6961 59.9096 52.2844 61.9577 53.3974C62.3296 53.5979 62.6709 53.8368 63.0194 54.0667C66.3807 47.4869 68.1545 40.5278 68.1545 33.7388C68.1545 33.3573 68.1545 32.9634 68.1423 32.5696C68.1177 32.0158 67.7238 31.5358 67.1699 31.4127C59.7361 29.7881 53.0038 25.7634 47.7115 19.7819L46.9238 18.8834C46.6899 18.6127 46.3577 18.465 46.0007 18.465C45.6192 18.4158 45.3238 18.6004 45.0899 18.8589L43.8838 20.1881C38.8623 25.7142 32.5361 29.5296 25.5946 31.2281L24.7946 31.425C24.253 31.5481 23.8715 32.0281 23.8592 32.5819C23.4161 49.8865 33.6315 62.3296 38.0377 66.8834C39.2306 68.1082 40.5606 69.3256 41.8253 70.3319C41.3509 68.9011 41.0779 67.3957 41.0779 65.8499C41.0779 58.0452 47.427 51.6961 55.2317 51.6961Z"
              fill="url(#paint0_linear_22728_10177)"/>
        <path d="M60.7822 55.5593C59.0837 54.6363 57.1637 54.1562 55.2314 54.1562C48.7822 54.1562 43.5391 59.3993 43.5391 65.8486C43.5391 68.027 44.1299 70.1562 45.2622 71.9778C47.416 75.4609 51.133 77.5409 55.2314 77.5409C61.6683 77.5409 66.9237 72.2978 66.9237 65.8486C66.9237 61.5409 64.5729 57.6024 60.7822 55.5593ZM61.2196 64.2918L52.0747 71.4084L48.9527 66.5249C48.5862 65.9522 48.7538 65.1914 49.3265 64.8254C49.8999 64.4588 50.6613 64.6277 51.0261 65.1992L52.6937 67.8074L59.7076 62.3495C60.243 61.9318 61.0171 62.0273 61.4347 62.5646C61.8524 63.1013 61.7556 63.8747 61.2196 64.2918Z"
              fill="url(#paint1_linear_22728_10177)"/>
        <defs>
            <linearGradient id="paint0_linear_22728_10177" x1="45.9999" y1="18.457" x2="45.9999"
                            y2="70.3319" gradientUnits="userSpaceOnUse">
                <stop stop-color="#EF8080"/>
                <stop offset="1" stop-color="#F0145A"/>
            </linearGradient>
            <linearGradient id="paint1_linear_22728_10177" x1="55.2314" y1="54.1562" x2="55.2314"
                            y2="77.5409" gradientUnits="userSpaceOnUse">
                <stop stop-color="#EF8080"/>
                <stop offset="1" stop-color="#F0145A"/>
            </linearGradient>
        </defs>
    </symbol>

    <symbol id="Judicial_representation" viewBox="0 0 92 92">
        <rect width="92" height="92" rx="24" fill="white"/>
        <path d="M54.352 34.389C55.084 35.121 56.27 35.123 57.002 34.389L59.61 31.781C60.341 31.049 60.339 29.863 59.61 29.13L53.027 22.549C52.297 21.817 51.111 21.817 50.379 22.549L47.77 25.157C47.04 25.889 47.04 27.075 47.77 27.805L54.352 34.389Z"
              fill="url(#paint0_linear_22728_10183)"/>
        <path d="M38.766 50.2652C39.497 50.9942 40.683 50.9942 41.414 50.2652L44.023 47.6553C44.755 46.9253 44.755 45.7383 44.023 45.0063L37.44 38.4233C36.709 37.6933 35.523 37.6913 34.791 38.4233L32.183 41.0312C31.451 41.7632 31.453 42.9492 32.183 43.6812L38.766 50.2652Z"
              fill="url(#paint1_linear_22728_10183)"/>
        <path d="M68.648 50.8912L66.001 48.2412C65.267 47.5112 64.084 47.5112 63.353 48.2412L62.192 49.4012L50.987 38.1942L53.414 35.7662L46.681 29.0352L44.253 31.4632L41.161 34.5532L38.787 36.9272L45.519 43.6602L47.896 41.2872L59.099 52.4922L58.051 53.5412C57.319 54.2702 57.317 55.4572 58.051 56.1892L60.698 58.8372C61.432 59.5712 62.617 59.5712 63.348 58.8372L68.647 53.5402C69.38 52.8072 69.38 51.6232 68.648 50.8912Z"
              fill="url(#paint2_linear_22728_10183)"/>
        <path d="M49.077 58.9425C49.077 57.7435 48.105 56.7695 46.904 56.7695H29.936C28.736 56.7695 27.763 57.7435 27.763 58.9425V62.4695H23V69.8585H53.558V62.4695H49.077V58.9425Z"
              fill="url(#paint3_linear_22728_10183)"/>
        <defs>
            <linearGradient id="paint0_linear_22728_10183" x1="53.69" y1="22" x2="53.69" y2="34.9388"
                            gradientUnits="userSpaceOnUse">
                <stop stop-color="#EF8080"/>
                <stop offset="1" stop-color="#F0145A"/>
            </linearGradient>
            <linearGradient id="paint1_linear_22728_10183" x1="38.1034" y1="37.875" x2="38.1034"
                            y2="50.812" gradientUnits="userSpaceOnUse">
                <stop stop-color="#EF8080"/>
                <stop offset="1" stop-color="#F0145A"/>
            </linearGradient>
            <linearGradient id="paint2_linear_22728_10183" x1="53.9919" y1="29.0352" x2="53.9919"
                            y2="59.3877" gradientUnits="userSpaceOnUse">
                <stop stop-color="#EF8080"/>
                <stop offset="1" stop-color="#F0145A"/>
            </linearGradient>
            <linearGradient id="paint3_linear_22728_10183" x1="38.279" y1="56.7695" x2="38.279"
                            y2="69.8585" gradientUnits="userSpaceOnUse">
                <stop stop-color="#EF8080"/>
                <stop offset="1" stop-color="#F0145A"/>
            </linearGradient>
        </defs>
    </symbol>

    <symbol id="shadow_first" viewBox="0 0 1400 10">
        <path d="M0 0H1400C1400 5.52285 1395.52 10 1390 10H9.99998C4.47713 10 0 5.52285 0 0Z" fill="#CACADB"/>
    </symbol>
    <symbol id="shadow_second" viewBox="0 0 1360 10">
        <path d="M0 0H1360C1360 5.52285 1355.52 10 1350 10H10C4.47716 10 0 5.52285 0 0Z" fill="#E7E7F2"/>
    </symbol>

    <symbol id="publications_description_line" viewBox="0 0 1000 10">
        <rect width="1000" height="10" fill="#E6E6F0"/>
    </symbol>

    <symbol id="footer_line" viewBox="0 0 1600 2">
        <rect width="1600" height="2" fill="#E6E6F0"/>
    </symbol>

    <symbol id="footer_facebook" viewBox="0 0 38 38">
        <g clip-path="url(#clip0_172826_1748)">
            <path d="M38 19.1161C38 8.55857 29.4934 0 19 0C8.50658 0 0 8.55857 0 19.1161C0 28.6575 6.94803 36.5659 16.0312 38V24.6419H11.207V19.1161H16.0312V14.9046C16.0312 10.1136 18.8678 7.46723 23.2078 7.46723C25.2866 7.46723 27.4609 7.84059 27.4609 7.84059V12.545H25.0651C22.7048 12.545 21.9688 14.0185 21.9688 15.5302V19.1161H27.2383L26.3959 24.6419H21.9688V38C31.052 36.5659 38 28.6575 38 19.1161Z"
                  fill="currentColor"/>
        </g>
        <defs>
            <clipPath id="clip0_172826_1748">
                <rect width="38" height="38" fill="currentColor"/>
            </clipPath>
        </defs>
    </symbol>

    <symbol id="burger" viewBox="0 0 32 32" fill="none">
        <path d="M7 10.5H25" stroke="currentColor" stroke-width="2"/>
        <path d="M7 16.5H25" stroke="currentColor" stroke-width="2"/>
        <path d="M7 22.5H25" stroke="currentColor" stroke-width="2"/>
    </symbol>

</svg>
